<?xml version="1.0" encoding="UTF-8"?>
<svg width="410px" height="120px" viewBox="0 0 410 120" version="1.1" xmlns="http://www.w3.org/2000/svg" xmlns:xlink="http://www.w3.org/1999/xlink">
    <!-- Generator: Sketch 52.2 (67145) - http://www.bohemiancoding.com/sketch -->
    <title>LOGO3-2</title>
    <desc>Created with Sketch.</desc>
    <g id="Page-1" stroke="none" stroke-width="1" fill="none" fill-rule="evenodd">
        <g id="v2" transform="translate(-515.000000, -152.000000)">
            <g id="header">
                <g id="LOGO3-2" transform="translate(514.000000, 152.000000)">
                    <g id="Group" transform="translate(0.909091, 0.000000)">
                        <g fill="#FFCB05" fill-rule="nonzero" id="Combined-Shape">
                            <path d="M195.818182,18.1090909 L217.636364,18.1090909 L217.636364,43.2 C217.636364,45.4909091 218.290909,46.9090909 219.490909,47.3454545 C220.690909,47.8909091 222.981818,48 226.254545,47.7818182 L226.254545,56.7272727 C219.163636,57.9272727 214.145455,57.2727273 211.309091,54.8727273 C208.472727,52.4727273 207.054545,48.4363636 207.054545,42.7636364 L207.054545,27.3818182 L195.818182,27.3818182 L186.218182,27.3818182 L186.218182,71.5636364 L175.418182,71.5636364 L175.418182,27.3818182 L168.763636,27.3818182 L168.763636,18.1090909 L175.418182,18.1090909 L175.418182,15.4909091 C175.418182,13.3090909 175.636364,11.3454545 175.963636,9.70909091 C176.290909,8.07272727 176.945455,6.65454545 177.927273,5.23636364 C178.8,3.92727273 180.109091,2.94545455 181.636364,2.29090909 C183.163636,1.74545455 185.127273,1.30909091 187.418182,0.981818182 C189.818182,0.763636364 192.545455,0.872727273 195.818182,1.52727273 L195.818182,10.3636364 C191.890909,10.1454545 189.272727,10.3636364 188.072727,10.8 C186.872727,11.4545455 186.218182,12.7636364 186.218182,15.1636364 L186.218182,18.1090909 L195.818182,18.1090909 Z M42.2181818,23.5636364 L42.2181818,37.8545455 C42.2181818,43.9636364 40.3636364,48.6545455 36.6545455,51.9272727 C32.9454545,55.0909091 27.8181818,56.7272727 21.3818182,56.7272727 L0.763636364,56.7272727 L0.763636364,4.8 L21.6,4.8 C28.0363636,4.8 33.0545455,6.43636364 36.6545455,9.70909091 C40.3636364,12.8727273 42.2181818,17.5636364 42.2181818,23.5636364 Z M30.6545455,37.8545455 L30.6545455,23.5636364 C30.6545455,20.7272727 29.8909091,18.5454545 28.2545455,17.0181818 C26.6181818,15.4909091 24.4363636,14.7272727 21.6,14.7272727 L12.3272727,14.7272727 L12.3272727,46.6909091 L21.4909091,46.6909091 C24.3272727,46.6909091 26.6181818,45.9272727 28.2545455,44.4 C29.8909091,42.8727273 30.6545455,40.6909091 30.6545455,37.8545455 Z M72.2181818,44.0727273 L83.0181818,44.0727273 C82.4727273,48.4363636 80.8363636,51.8181818 77.8909091,54.1090909 C74.9454545,56.4 71.0181818,57.4909091 66.1090909,57.4909091 C60.9818182,57.4909091 56.8363636,56.1818182 53.7818182,53.5636364 C50.7272727,50.9454545 49.2,47.1272727 49.2,42.1090909 L49.2,32.7272727 C49.2,27.7090909 50.7272727,23.8909091 53.7818182,21.2727273 C56.8363636,18.6545455 60.9818182,17.3454545 66.2181818,17.3454545 C71.4545455,17.3454545 75.4909091,18.6545455 78.5454545,21.2727273 C81.6,23.8909091 83.1272727,27.7090909 83.1272727,32.7272727 L83.1272727,40.6909091 L60,40.6909091 L60,42.7636364 C60,44.4 60.5454545,45.7090909 61.5272727,46.6909091 C62.6181818,47.6727273 64.0363636,48.1090909 66.1090909,48.1090909 C69.4909091,48.2181818 71.4545455,46.8 72.2181818,44.0727273 Z M60,31.9636364 L60,32.9454545 L72.2181818,32.9454545 L72.2181818,31.9636364 C72.2181818,28.3636364 70.1454545,26.6181818 66.1090909,26.6181818 C64.1454545,26.6181818 62.6181818,27.0545455 61.5272727,27.9272727 C60.5454545,28.9090909 60,30.2181818 60,31.9636364 Z M111.272727,45.3818182 C111.272727,43.9636364 110.181818,42.9818182 107.890909,42.5454545 L100.8,41.0181818 C97.2,40.2545455 94.4727273,38.9454545 92.4,36.9818182 C90.4363636,35.0181818 89.3454545,32.5090909 89.3454545,29.5636364 C89.3454545,25.4181818 90.7636364,22.3636364 93.4909091,20.4 C96.3272727,18.3272727 100.254545,17.3454545 105.490909,17.3454545 C110.618182,17.3454545 114.654545,18.3272727 117.381818,20.4 C120.218182,22.3636364 121.527273,25.3090909 121.527273,29.2363636 L121.527273,30.3272727 L110.727273,30.3272727 L110.727273,29.5636364 C110.727273,27.3818182 108.981818,26.1818182 105.381818,26.1818182 C101.781818,26.1818182 99.9272727,27.2727273 99.9272727,29.3454545 C99.9272727,30.7636364 101.018182,31.7454545 103.309091,32.1818182 L110.4,33.7090909 C114,34.4727273 116.727273,35.7818182 118.8,37.7454545 C120.763636,39.7090909 121.854545,42.1090909 121.854545,45.0545455 C121.854545,49.2 120.436364,52.3636364 117.490909,54.3272727 C114.545455,56.4 110.509091,57.3818182 105.272727,57.3818182 C100.036364,57.3818182 96,56.4 93.1636364,54.3272727 C90.2181818,52.2545455 88.8,49.3090909 88.8,45.4909091 L88.8,44.4 L99.6,44.4 L99.6,45.1636364 C99.6,47.3454545 101.454545,48.5454545 105.272727,48.5454545 C109.309091,48.5454545 111.272727,47.5636364 111.272727,45.3818182 Z M139.418182,30.3272727 L128.727273,30.3272727 C128.727273,26.0727273 130.036364,22.9090909 132.763636,20.7272727 C135.490909,18.5454545 139.418182,17.3454545 144.654545,17.3454545 C149.563636,17.3454545 153.490909,18.5454545 156.327273,21.0545455 C159.163636,23.5636364 160.581818,27.1636364 160.581818,31.8545455 L160.581818,43.2 C160.581818,45.4909091 161.018182,46.9090909 161.781818,47.3454545 C162.545455,47.8909091 163.854545,48 165.818182,47.7818182 L165.818182,56.7272727 C158.4,58.2545455 153.709091,56.7272727 151.527273,52.1454545 C149.345455,55.6363636 145.527273,57.3818182 140.072727,57.3818182 C136.036364,57.3818182 132.763636,56.2909091 130.472727,54.2181818 C128.072727,52.1454545 126.981818,49.0909091 126.981818,45.2727273 C126.981818,41.3454545 128.181818,38.4 130.472727,36.3272727 C132.872727,34.2545455 136.036364,33.1636364 140.181818,33.1636364 C144.436364,33.1636364 147.709091,34.2545455 150,36.4363636 L150,31.0909091 C150,29.5636364 149.563636,28.3636364 148.581818,27.4909091 C147.6,26.6181818 146.4,26.1818182 144.763636,26.1818182 C142.909091,26.1818182 141.490909,26.5090909 140.727273,27.1636364 C139.854545,27.8181818 139.418182,28.9090909 139.418182,30.3272727 Z M137.563636,44.9454545 C137.563636,47.1272727 139.636364,48.1090909 143.672727,48.1090909 C147.818182,48.1090909 149.781818,47.0181818 149.781818,44.9454545 C149.781818,42.8727273 147.709091,41.7818182 143.672727,41.7818182 C139.636364,41.7818182 137.563636,42.8727273 137.563636,44.9454545 Z M215.672727,13.6363636 L207.272727,13.6363636 L213.381818,1.74545455 L224.618182,1.74545455 L215.672727,13.6363636 Z M268.145455,32.7272727 L268.145455,42.1090909 C268.145455,47.1272727 266.618182,50.9454545 263.563636,53.5636364 C260.509091,56.1818182 256.363636,57.4909091 251.127273,57.4909091 C245.890909,57.4909091 241.854545,56.1818182 238.8,53.5636364 C235.745455,50.9454545 234.218182,47.1272727 234.218182,42.1090909 L234.218182,32.7272727 C234.218182,27.7090909 235.745455,23.8909091 238.8,21.2727273 C241.854545,18.6545455 246,17.3454545 251.236364,17.3454545 C256.472727,17.3454545 260.509091,18.6545455 263.563636,21.2727273 C266.618182,23.8909091 268.145455,27.7090909 268.145455,32.7272727 Z M257.345455,42.8727273 L257.345455,32.0727273 C257.345455,28.4727273 255.272727,26.7272727 251.236364,26.7272727 C249.272727,26.7272727 247.745455,27.1636364 246.654545,28.0363636 C245.563636,28.9090909 245.018182,30.2181818 245.018182,32.0727273 L245.018182,42.8727273 C245.018182,44.6181818 245.563636,46.0363636 246.654545,46.9090909 C247.745455,47.7818182 249.272727,48.2181818 251.127273,48.2181818 C255.381818,48.2181818 257.345455,46.3636364 257.345455,42.8727273 Z"></path>
                        </g>
                        <g transform="translate(6.545455, 62.181818)" fill="#F1F3F3">
                            <path d="M12.1090909,56.2909091 L0.436363636,56.2909091 L0.327272727,22.8 C0.327272727,16.5818182 2.18181818,11.8909091 5.89090909,8.61818182 C9.6,5.34545455 14.7272727,3.70909091 21.2727273,3.70909091 L36.2181818,3.70909091 L36.2181818,13.8545455 L21.2727273,13.8545455 C18.3272727,13.8545455 16.0363636,14.6181818 14.4,16.1454545 C12.7636364,17.6727273 11.8909091,19.8545455 11.8909091,22.8 L11.8909091,27.1636364 L32.4,27.1636364 L32.4,37.3090909 L11.8909091,37.3090909 L12.1090909,56.2909091 Z" id="Path"></path>
                            <path d="M37.0909091,26.5090909 L37.0909091,17.1272727 L56.2909091,17.1272727 L56.4,42.5454545 C56.4,44.8363636 57.0545455,46.2545455 58.2545455,46.8 C59.4545455,47.3454545 61.7454545,47.4545455 65.0181818,47.2363636 L65.0181818,56.1818182 C57.8181818,57.3818182 52.6909091,56.8363636 49.8545455,54.3272727 C46.9090909,51.9272727 45.4909091,47.7818182 45.4909091,42.1090909 L45.4909091,26.5090909 L37.0909091,26.5090909 Z M45.3818182,11.4545455 L45.3818182,0.545454545 L56.2909091,0.545454545 L56.2909091,11.4545455 L45.3818182,11.4545455 Z" id="Shape" fill-rule="nonzero"></path>
                            <path d="M69.9272727,56.1818182 L69.8181818,31.8545455 C69.8181818,26.8363636 71.3454545,22.9090909 74.4,20.2909091 C77.4545455,17.6727273 81.6,16.2545455 86.9454545,16.2545455 C92.1818182,16.2545455 96.3272727,17.5636364 99.4909091,20.1818182 C102.545455,22.8 104.072727,26.7272727 104.072727,31.7454545 L104.181818,56.0727273 L93.2727273,56.0727273 L93.1636364,30.9818182 C93.1636364,27.3818182 91.0909091,25.5272727 86.9454545,25.6363636 C84.9818182,25.6363636 83.4545455,26.0727273 82.3636364,26.9454545 C81.2727273,27.8181818 80.7272727,29.2363636 80.7272727,30.9818182 L80.8363636,56.0727273 L69.9272727,56.1818182 Z" id="Path"></path>
                            <path d="M128.836364,26.2909091 L128.836364,42.3272727 C128.836364,44.7272727 129.490909,46.1454545 130.690909,46.5818182 C131.890909,47.1272727 134.618182,47.2363636 138.545455,47.0181818 L138.545455,55.9636364 C135.272727,56.6181818 132.436364,56.7272727 130.036364,56.5090909 C127.636364,56.2909091 125.672727,55.8545455 124.145455,55.2 C122.618182,54.6545455 121.309091,53.5636364 120.436364,52.2545455 C119.454545,50.8363636 118.8,49.4181818 118.472727,47.7818182 C118.145455,46.1454545 117.927273,44.1818182 117.927273,42 L117.927273,26.4 L108.872727,26.4 L108.872727,17.0181818 L138.545455,16.9090909 L138.545455,26.2909091 L128.836364,26.2909091 Z" id="Path"></path>
                            <path d="M168.327273,43.2 L179.236364,43.2 C178.690909,47.6727273 177.054545,51.0545455 174.109091,53.3454545 C171.163636,55.6363636 167.236364,56.8363636 162.218182,56.8363636 C156.981818,56.8363636 152.836364,55.5272727 149.781818,52.9090909 C146.727273,50.2909091 145.090909,46.3636364 145.090909,41.3454545 L145.090909,31.8545455 C145.090909,26.8363636 146.618182,22.9090909 149.672727,20.2909091 C152.727273,17.6727273 156.872727,16.2545455 162.218182,16.2545455 C167.454545,16.2545455 171.6,17.5636364 174.763636,20.1818182 C177.818182,22.8 179.345455,26.7272727 179.345455,31.7454545 L179.345455,39.8181818 L156,39.9272727 L156,42 C156,43.7454545 156.545455,45.0545455 157.636364,46.0363636 C158.727273,47.0181818 160.254545,47.4545455 162.218182,47.4545455 C165.6,47.3454545 167.563636,45.9272727 168.327273,43.2 Z M156,30.9818182 L156,31.9636364 L168.436364,31.9636364 L168.436364,30.9818182 C168.436364,27.3818182 166.363636,25.5272727 162.218182,25.6363636 C160.254545,25.6363636 158.727273,26.0727273 157.636364,27.0545455 C156.545455,27.8181818 155.890909,29.1272727 156,30.9818182 Z" id="Shape" fill-rule="nonzero"></path>
                            <path d="M209.345455,41.0181818 L220.254545,41.0181818 L220.254545,41.1272727 C220.254545,46.1454545 218.727273,50.0727273 215.672727,52.6909091 C212.618182,55.3090909 208.472727,56.7272727 203.127273,56.7272727 C197.890909,56.7272727 193.745455,55.4181818 190.581818,52.8 C187.527273,50.1818182 186,46.2545455 186,41.2363636 L186,31.7454545 C186,26.7272727 187.527273,22.8 190.581818,20.1818182 C193.636364,17.5636364 197.781818,16.1454545 203.127273,16.1454545 C208.363636,16.1454545 212.509091,17.4545455 215.672727,20.0727273 C218.727273,22.6909091 220.254545,26.6181818 220.254545,31.6363636 L220.254545,31.7454545 L209.345455,31.7454545 L209.345455,30.8727273 C209.345455,27.2727273 207.272727,25.4181818 203.127273,25.5272727 C201.163636,25.5272727 199.636364,25.9636364 198.545455,26.8363636 C197.454545,27.7090909 196.909091,29.1272727 196.909091,30.8727273 L196.909091,41.8909091 C196.909091,43.7454545 197.454545,45.0545455 198.545455,45.9272727 C199.636364,46.8 201.163636,47.2363636 203.018182,47.2363636 C207.163636,47.2363636 209.236364,45.3818182 209.236364,41.7818182 L209.345455,41.0181818 Z" id="Path"></path>
                            <path d="M261.709091,55.7454545 L250.8,55.7454545 L250.690909,30.6545455 C250.690909,27.0545455 248.618182,25.2 244.472727,25.3090909 C242.509091,25.3090909 240.981818,25.7454545 239.890909,26.7272727 C238.8,27.6 238.254545,29.0181818 238.254545,30.7636364 L238.363636,55.8545455 L227.454545,55.8545455 L227.345455,0.218181818 L238.254545,0.218181818 L238.254545,19.5272727 C240.545455,17.2363636 243.709091,16.0363636 247.745455,16.0363636 C252,16.0363636 255.381818,17.3454545 257.781818,19.9636364 C260.290909,22.5818182 261.490909,26.5090909 261.490909,31.5272727 L261.709091,55.7454545 Z" id="Path"></path>
                        </g>
                    </g>
                    <g id="Group" transform="translate(279.090909, 17.454545)" fill="#FFCB05">
                        <path d="M34.6909091,101.563636 C33.2727273,101.563636 31.8545455,101.127273 30.6545455,100.254545 C27.4909091,98.0727273 26.6181818,93.6 28.9090909,90.4363636 L47.5636364,63.6 L15.0545455,56.2909091 C12,55.6363636 9.70909091,52.9090909 9.49090909,49.7454545 C9.38181818,46.5818182 11.3454545,43.6363636 14.4,42.6545455 L55.9636364,29.1272727 L5.12727273,14.2909091 C1.41818182,13.2 -0.763636364,9.27272727 0.327272727,5.56363636 C1.41818182,1.85454545 5.34545455,-0.327272727 9.05454545,0.763636364 L81.7090909,22.0363636 C84.6545455,22.9090909 86.7272727,25.6363636 86.8363636,28.6909091 C86.8363636,31.7454545 84.8727273,34.5818182 81.9272727,35.5636364 L43.2,48.2181818 L60.8727273,52.1454545 C63.1636364,52.6909091 65.0181818,54.3272727 65.8909091,56.5090909 C66.7636364,58.6909091 66.4363636,61.2 65.1272727,63.1636364 L40.3636364,98.6181818 C39.1636364,100.472727 36.9818182,101.563636 34.6909091,101.563636 Z M81.1636364,75.0545455 C76.5818182,75.0545455 73.9636364,73.4181818 72.2181818,71.3454545 C71.8909091,71.0181818 72,70.6909091 72.3272727,70.3636364 L75.0545455,67.2 C75.3818182,66.8727273 75.7090909,66.9818182 76.0363636,67.3090909 C77.3454545,68.6181818 78.7636364,69.3818182 81.7090909,69.3818182 C84.1090909,69.3818182 86.0727273,67.9636364 86.6181818,65.2363636 C87.0545455,62.8363636 85.5272727,61.6363636 83.0181818,61.6363636 C82.2545455,61.6363636 81.2727273,61.7454545 80.4,61.9636364 C79.9636364,62.0727273 79.6363636,61.8545455 79.5272727,61.5272727 L78.8727273,59.2363636 C78.7636364,58.9090909 78.8727273,58.5818182 79.2,58.3636364 L86.4,52.0363636 L77.5636364,52.0363636 C77.1272727,52.0363636 76.9090909,51.7090909 76.9090909,51.2727273 L77.6727273,47.0181818 C77.6727273,46.5818182 78,46.3636364 78.4363636,46.3636364 L94.3636364,46.3636364 C94.8,46.3636364 95.0181818,46.6909091 95.0181818,47.1272727 L94.3636364,50.5090909 C94.3636364,50.8363636 94.2545455,51.0545455 93.9272727,51.2727273 L86.5090909,57.6 C90.5454545,57.4909091 93.3818182,61.3090909 92.6181818,65.6727273 C91.5272727,71.7818182 87.2727273,75.0545455 81.1636364,75.0545455 Z M101.672727,73.9636364 C101.563636,74.4 101.345455,74.6181818 100.909091,74.6181818 L96,74.6181818 C95.5636364,74.6181818 95.3454545,74.2909091 95.3454545,73.8545455 L100.145455,46.9090909 C100.254545,46.4727273 100.472727,46.2545455 100.909091,46.2545455 L105.818182,46.2545455 C106.254545,46.2545455 106.581818,46.5818182 106.472727,47.0181818 L101.672727,73.9636364 Z M131.236364,46.3636364 C131.672727,46.3636364 132,46.6909091 131.890909,47.1272727 L131.127273,51.4909091 C131.127273,51.9272727 130.8,52.1454545 130.363636,52.1454545 L123.490909,52.1454545 L119.563636,74.0727273 C119.454545,74.5090909 119.236364,74.7272727 118.8,74.7272727 L113.890909,74.7272727 C113.454545,74.7272727 113.236364,74.4 113.345455,73.9636364 L117.272727,52.1454545 L110.509091,52.1454545 C110.072727,52.1454545 109.854545,51.8181818 109.854545,51.3818182 L110.618182,47.0181818 C110.727273,46.5818182 110.945455,46.3636364 111.381818,46.3636364 L131.236364,46.3636364 Z" id="Combined-Shape"></path>
                    </g>
                </g>
            </g>
        </g>
    </g>
</svg>